<svg width="41" height="42" viewBox="0 0 41 42" fill="none" xmlns="http://www.w3.org/2000/svg">
<path fill-rule="evenodd" clip-rule="evenodd" d="M1.88594 10.6616C1.66763 10.8999 1.27264 11.6695 1.00776 12.3718C0.388046 14.015 0.664436 15.8032 1.75033 17.1757C2.90921 18.6404 2.9008 18.64 4.64886 17.257C5.49236 16.5896 6.14612 15.9975 6.10177 15.9414C6.05729 15.8852 5.70954 15.7646 5.32908 15.6736C4.00904 15.3577 3.61413 14.0328 4.52445 12.9749C4.96576 12.462 5.17424 12.4423 7.54245 12.6894L10.0865 12.9546L12.1324 11.3359L14.1783 9.7172L14.5004 7.21902C14.8579 4.44349 15.1864 3.92836 16.5005 4.08154C17.3629 4.18191 18.0317 4.87623 18.0495 5.68941C18.0557 5.98368 18.1045 6.28463 18.158 6.35818C18.2112 6.43186 18.945 5.94581 19.7885 5.27843C21.5339 3.8974 21.5338 3.89754 20.3908 2.46537C18.6558 0.291624 15.4645 -0.0813133 13.2913 1.63623C12.0354 2.62877 11.7176 3.3911 11.1828 6.69562L10.7402 9.43024L8.04076 9.14516C6.55593 8.98852 4.99311 8.95977 4.56764 9.0816C3.64935 9.34434 2.43851 10.0578 1.88594 10.6616ZM0.476176 23.3626C0.41298 23.9048 0.586046 24.2103 1.88998 25.8584C3.1493 27.45 3.47511 27.7587 4.02754 27.8827L4.6791 28.0293L10.4252 23.5639L16.1712 19.0987L14.0509 16.4189L11.9306 13.739L6.2394 18.2419C0.778086 22.5629 0.545276 22.7698 0.476176 23.3626ZM16.8103 14.2356L18.9306 16.9155L24.5977 12.3506L30.265 7.78559L30.2722 7.11779C30.2786 6.55164 30.0531 6.16357 28.7938 4.57192C26.5889 1.78513 27.3063 1.57365 20.3811 7.05287L14.6899 11.5558L16.8103 14.2356ZM12.0177 35.8234C16.3387 41.2847 16.5456 41.5175 17.1384 41.5866C17.7278 41.6553 17.9861 41.4767 22.7576 37.7015L27.759 33.7444L22.9832 27.7083L18.2073 21.6722L12.8611 25.9022L7.51482 30.1322L12.0177 35.8234ZM25.7425 25.5251L30.5183 31.5612L35.5197 27.6041C40.2912 23.8289 40.5244 23.6186 40.5931 23.0292C40.6622 22.4364 40.4832 22.1815 36.1622 16.7202L31.6593 11.029L26.313 15.259L20.9667 19.489L25.7425 25.5251Z" fill="black" fill-opacity="0.2"/>
</svg>
