<svg width="20" height="27" viewBox="0 0 20 27" fill="none" xmlns="http://www.w3.org/2000/svg">
<path fill-rule="evenodd" clip-rule="evenodd" d="M2.15769 0.988194C1.30391 1.23581 0.52433 2.04475 0.257248 2.9602L0.153076 3.31737V13.9179V24.5184L0.257248 24.8756C0.52772 25.8026 1.30931 26.6062 2.17782 26.8502C2.41988 26.9181 3.38471 26.9277 10.0294 26.9277C16.6741 26.9277 17.639 26.9181 17.881 26.8502C18.7495 26.6062 19.5311 25.8026 19.8016 24.8756L19.9058 24.5184V13.9179V3.31737L19.8016 2.9602C19.5311 2.03323 18.7495 1.22962 17.881 0.985658C17.4763 0.871994 2.55002 0.874378 2.15769 0.988194ZM17.311 3.41191C17.3954 3.44995 17.5005 3.54044 17.5447 3.61297C17.6194 3.73607 17.6248 4.3512 17.6248 12.7546V21.7643L17.4649 21.9368L17.305 22.1092H10.0294H2.75385L2.59394 21.9368L2.43404 21.7643V12.7546C2.43404 4.35536 2.43945 3.73602 2.51409 3.61312C2.68391 3.33365 2.31458 3.34684 10.0192 3.34471C15.9437 3.34309 17.1836 3.3545 17.311 3.41191ZM10.58 23.6094C11.218 24.093 11.2185 24.9904 10.5809 25.4678C10.3813 25.6173 10.325 25.6343 10.0294 25.6343C9.7338 25.6343 9.6775 25.6173 9.4779 25.4678C9.00872 25.1165 8.86255 24.5096 9.12907 24.0192C9.35872 23.5966 9.6496 23.4218 10.0872 23.4435C10.3234 23.4552 10.419 23.4874 10.58 23.6094Z" fill="#EDEDED"/>
</svg>
