<svg width="26" height="22" viewBox="0 0 26 22" fill="none" xmlns="http://www.w3.org/2000/svg">
<path fill-rule="evenodd" clip-rule="evenodd" d="M15.5991 0.53999C15.1235 0.74674 14.7472 1.22093 14.6302 1.76126C14.5733 2.02388 14.5401 2.76946 14.5567 3.41822L14.5866 4.59778L15.6718 4.64732C16.8158 4.6995 17.2904 4.85181 17.6917 5.29551C17.8665 5.48887 17.9453 5.49425 20.5996 5.49425C22.2997 5.49425 23.3965 5.53105 23.5103 5.59192C23.7143 5.7011 23.7529 6.05695 23.5796 6.23029C23.4972 6.31267 22.7838 6.34353 20.9609 6.34353H18.4555L18.4843 7.16923C18.5002 7.62331 18.5307 8.04805 18.5522 8.11288C18.582 8.20318 19.1624 8.23083 21.0288 8.23083C22.7988 8.23083 23.4974 8.26188 23.5796 8.34407C23.7529 8.51742 23.7143 8.87327 23.5103 8.98245C23.3981 9.04247 22.3967 9.08012 20.9119 9.08012H18.4959L18.5229 10.0002L18.5499 10.9202L21.0978 10.9674L23.6456 11.0146L23.674 11.2586C23.6896 11.3928 23.6436 11.5513 23.5719 11.6108C23.483 11.6846 22.6622 11.7272 20.9957 11.7443L18.5499 11.7695L18.5027 14.7892C18.4503 18.1413 18.4616 18.0796 17.7782 18.763C17.2388 19.3025 16.7351 19.4773 15.5599 19.533C14.4314 19.5864 14.453 19.5699 14.6394 20.2413C14.7626 20.6849 15.2403 21.2403 15.6437 21.4088C15.8845 21.5094 16.8201 21.5358 20.0803 21.5342C23.8952 21.5323 24.2408 21.5188 24.5893 21.358C25.026 21.1564 25.3364 20.8463 25.4794 20.4686C25.5483 20.2869 25.5801 17.2631 25.5801 10.9094C25.5801 3.09322 25.559 1.57536 25.4469 1.36106C25.2682 1.01899 24.8378 0.6219 24.5124 0.498941C24.3387 0.433262 22.8027 0.399857 20.0772 0.402216C16.6879 0.405236 15.8499 0.430998 15.5991 0.53999ZM23.5941 2.98838C23.6564 3.0634 23.6934 3.2226 23.6765 3.34225L23.6456 3.55976L20.2596 3.58458C16.7734 3.61006 16.6154 3.59506 16.6154 3.23685C16.6154 2.86429 16.7282 2.85203 20.1615 2.85203C22.9408 2.85203 23.4993 2.8742 23.5941 2.98838ZM1.41671 5.66071C1.04331 5.85576 0.86222 6.02599 0.69821 6.33608L0.479004 6.75072V12.0712C0.479004 17.2229 0.485043 17.4036 0.66962 17.7654C0.77446 17.9708 1.0367 18.2558 1.25251 18.3986L1.64479 18.6582H9.1134H16.5821L16.9139 18.4307C17.0965 18.3057 17.3482 18.054 17.4732 17.8715L17.7006 17.5398L17.7276 12.2483C17.7515 7.58122 17.7368 6.9101 17.6035 6.56029C17.4208 6.08063 16.9365 5.63419 16.4528 5.49991C16.2188 5.43489 13.6626 5.40073 9.0062 5.40045L1.91599 5.39988L1.41671 5.66071ZM16.1209 11.2741L16.0964 15.5441L9.08981 15.5683L2.08321 15.5925V11.2983V7.00409H9.11435H16.1455L16.1209 11.2741ZM20.7684 15.4262C21.2829 15.7763 21.4762 16.1112 21.4682 16.6388C21.4566 17.4225 20.9001 17.979 20.1164 17.9906C19.5888 17.9986 19.2539 17.8053 18.9038 17.2908C18.1388 16.1667 19.6444 14.6611 20.7684 15.4262ZM10.1823 16.894C10.2407 17.3062 10.0616 17.3842 9.05801 17.3842C8.22581 17.3842 8.1187 17.3646 8.0282 17.1955C7.9562 17.0609 7.95668 16.9517 8.0299 16.8149C8.12483 16.6375 8.20901 16.6251 9.142 16.6498C10.115 16.6756 10.1526 16.6843 10.1823 16.894ZM5.83799 20.3331L5.81063 21.1117L5.11261 21.1588C4.34674 21.2106 4.10517 21.3743 4.31154 21.7014C4.40808 21.8545 4.75676 21.8684 9.09632 21.891C13.7002 21.9151 13.7785 21.9124 13.8784 21.7259C13.9506 21.591 13.9506 21.4818 13.8788 21.3476C13.7916 21.1847 13.6812 21.1588 13.0734 21.1588H12.369V20.3567V19.5546H9.11718H5.86545L5.83799 20.3331Z" fill="#EDEDED"/>
</svg>
