<svg width="24" height="23" viewBox="0 0 24 23" fill="none" xmlns="http://www.w3.org/2000/svg">
<path fill-rule="evenodd" clip-rule="evenodd" d="M8.31559 0.96733C7.91519 1.28501 7.58666 1.56001 7.58548 1.5784C7.58426 1.59684 8.13252 2.2977 8.80379 3.13591C9.47505 3.97412 10.0243 4.67006 10.0243 4.68253C10.0243 4.69495 8.34153 4.7051 6.2848 4.7051C3.11076 4.7051 2.50758 4.71495 2.2957 4.77014C1.6335 4.94262 1.17281 5.36608 0.953339 6.00405C0.873615 6.23572 0.870651 6.47289 0.871131 12.6124C0.87161 19.451 0.861367 19.1234 1.08955 19.5707C1.21247 19.8117 1.58677 20.186 1.82773 20.3089C2.23663 20.5175 2.32738 20.5268 3.95455 20.5273L5.49105 20.5278V21.4649V22.4021H6.45H7.40895V21.4649V20.5278H12.0293H16.6497V21.4649V22.4021H17.6087H18.5676V21.4649V20.5278L20.1041 20.5273C21.7313 20.5268 21.8221 20.5175 22.231 20.3089C22.4719 20.186 22.8462 19.8117 22.9691 19.5707C23.1973 19.1234 23.1871 19.451 23.1876 12.6124C23.188 6.47289 23.1851 6.23572 23.1054 6.00405C22.8859 5.36608 22.4252 4.94262 21.763 4.77014C21.5511 4.71495 20.9479 4.7051 17.7739 4.7051C15.7172 4.7051 14.0344 4.69495 14.0344 4.68253C14.0344 4.67006 14.5836 3.97412 15.2549 3.13591C15.9262 2.2977 16.4745 1.59684 16.4733 1.5784C16.4714 1.54606 15.0593 0.411621 15.021 0.411621C15.0105 0.411621 14.343 1.23545 13.5376 2.2423C12.7322 3.2492 12.0575 4.07821 12.0384 4.08458C12.0132 4.09299 9.50399 1.00077 9.08711 0.447582C9.05329 0.402729 8.8802 0.51933 8.31559 0.96733ZM17.0319 7.60584C17.2385 7.69215 17.3753 7.82078 17.4931 8.03964L17.5869 8.21399V12.5511C17.5869 14.9365 17.5709 16.9639 17.5513 17.0566C17.527 17.1717 17.4492 17.2915 17.3057 17.4351C17.1621 17.5786 17.0423 17.6564 16.9271 17.6807C16.7071 17.7272 4.56191 17.7272 4.34188 17.6807C4.11151 17.632 3.76642 17.2869 3.71773 17.0566C3.69816 16.9639 3.68212 14.9365 3.68212 12.5511V8.21399L3.77597 8.03964C3.89148 7.82496 4.02821 7.69411 4.22728 7.6078C4.36088 7.54987 5.14517 7.54155 10.625 7.54007C16.1661 7.53854 16.8887 7.546 17.0319 7.60584ZM21.3137 8.45373V9.36909H20.3984H19.483V8.45373V7.53837H20.3984H21.3137V8.45373ZM21.3137 11.2434V12.1588H20.3984H19.483V11.2434V10.328H20.3984H21.3137V11.2434ZM20.7693 13.199C21.1219 13.3592 21.35 13.7614 21.2999 14.1347C21.2644 14.3994 21.0614 14.6876 20.8246 14.8094C20.1207 15.1717 19.3201 14.5386 19.524 13.781C19.6243 13.4086 20.0063 13.1196 20.3984 13.1196C20.5063 13.1196 20.6732 13.1553 20.7693 13.199ZM20.7693 15.9887C21.1219 16.1489 21.35 16.5511 21.2999 16.9244C21.2644 17.189 21.0614 17.4773 20.8246 17.5991C20.1207 17.9613 19.3201 17.3282 19.524 16.5707C19.6243 16.1983 20.0063 15.9093 20.3984 15.9093C20.5063 15.9093 20.6732 15.945 20.7693 15.9887Z" fill="#EDEDED"/>
</svg>
