<svg width="24" height="20" viewBox="0 0 24 20" fill="none" xmlns="http://www.w3.org/2000/svg">
<path fill-rule="evenodd" clip-rule="evenodd" d="M2.35875 6.69618V12.785L1.51005 14.9071C0.999116 16.1847 0.639687 17.1471 0.606824 17.3254C0.541994 17.6772 0.592766 18.0312 0.760661 18.3979C0.884589 18.6686 1.25306 19.0577 1.5092 19.1884C1.96928 19.4231 1.43094 19.4116 12.0295 19.4116C22.628 19.4116 22.0897 19.4231 22.5498 19.1884C22.8059 19.0577 23.1744 18.6686 23.2983 18.3979C23.4662 18.0312 23.517 17.6772 23.4522 17.3254C23.4193 17.1471 23.0599 16.1847 22.5489 14.9071L21.7002 12.785V6.69618V0.607422H12.0295H2.35875V6.69618ZM20.3571 7.09936V12.2481H12.0295H3.70191V7.09936V1.95058H12.0295H20.3571V7.09936ZM14.0442 16.7253V17.3969H12.0295H10.0148V16.7253V16.0537H12.0295H14.0442V16.7253Z" fill="#EDEDED"/>
</svg>
