<svg width="24" height="22" viewBox="0 0 24 22" fill="none" xmlns="http://www.w3.org/2000/svg">
<path fill-rule="evenodd" clip-rule="evenodd" d="M2.1125 0.991457C1.74045 1.08454 1.45964 1.2454 1.1722 1.5302C0.878409 1.82126 0.702366 2.13941 0.618642 2.53063C0.584302 2.69105 0.567871 3.55765 0.567871 5.20575V7.64363H5.94051H11.3131V5.20575C11.3131 3.55765 11.2967 2.69105 11.2624 2.53063C11.0973 1.75948 10.4773 1.13903 9.71035 0.977757C9.35544 0.903078 2.41561 0.915614 2.1125 0.991457ZM4.24034 3.70428C4.55441 3.86452 4.59735 4.01527 4.59735 4.95731C4.59735 5.68025 4.58772 5.78568 4.50722 5.94346C4.40586 6.14211 4.14793 6.30047 3.92577 6.30047C3.70361 6.30047 3.44568 6.14211 3.34431 5.94346C3.26381 5.78568 3.25419 5.68025 3.25419 4.95731C3.25419 4.23474 3.26386 4.1289 3.34423 3.97134C3.5097 3.64702 3.90007 3.5307 4.24034 3.70428ZM14.2905 7.70725C13.9184 7.80033 13.6376 7.9612 13.3502 8.24599C12.9096 8.68243 12.7458 9.13252 12.7458 9.90681V10.33H16.1037H19.4616V8.98679V7.64363L16.988 7.64744C15.1683 7.65026 14.4551 7.66606 14.2905 7.70725ZM20.8048 8.98679V10.33H22.148H23.4911V9.90681C23.4911 9.13651 23.3278 8.68597 22.8887 8.24483C22.4511 7.80526 22.0046 7.64363 21.2279 7.64363H20.8048V8.98679ZM0.568408 13.4752C0.56899 18.329 0.560976 18.1598 0.81358 18.657C0.971759 18.9684 1.37524 19.3643 1.67759 19.5047L1.91103 19.6131V20.0773C1.91103 20.6329 1.98361 20.8198 2.25949 20.9748C2.48057 21.0991 2.66781 21.1021 2.89718 20.9851C3.16447 20.8487 3.25419 20.6355 3.25419 20.1368V19.7321H5.94051H8.62682V20.1368C8.62682 20.6279 8.7088 20.8251 8.97528 20.9748C9.19637 21.0991 9.38361 21.1021 9.61297 20.9851C9.89002 20.8437 9.96998 20.6404 9.96998 20.0773V19.6131L10.2034 19.5047C10.6883 19.2795 11.1442 18.6876 11.2628 18.1293C11.2981 17.9626 11.3131 16.5678 11.3131 13.4394V8.98679H5.94051H0.567871L0.568408 13.4752ZM4.24034 10.4201C4.55441 10.5803 4.59735 10.7311 4.59735 11.6731C4.59735 12.396 4.58772 12.5015 4.50722 12.6593C4.40586 12.8579 4.14793 13.0163 3.92577 13.0163C3.70361 13.0163 3.44568 12.8579 3.34431 12.6593C3.26381 12.5015 3.25419 12.396 3.25419 11.6731C3.25419 10.9505 3.26386 10.8447 3.34423 10.6871C3.5097 10.3628 3.90007 10.2465 4.24034 10.4201ZM12.7458 15.4541C12.7458 18.1036 12.761 19.3062 12.7966 19.4724C12.9595 20.2332 13.5898 20.8637 14.3486 21.0249C14.6782 21.0948 21.5544 21.0955 21.8883 21.0255C22.2312 20.9538 22.6955 20.696 22.9261 20.4495C23.1629 20.1963 23.3708 19.8016 23.4407 19.4724C23.4758 19.3074 23.4911 18.085 23.4911 15.4541V11.6731H18.1185H12.7458V15.4541ZM18.7634 13.1047C19.2691 13.2341 19.6126 13.4328 20.0004 13.8206C20.3882 14.2085 20.587 14.5519 20.7164 15.0577C20.8779 15.6894 20.7941 16.3762 20.4828 16.9703C20.2925 17.3334 19.7493 17.8766 19.3862 18.0669C18.7921 18.3782 18.1053 18.462 17.4736 18.3005C16.9678 18.1711 16.6243 17.9723 16.2365 17.5845C15.8487 17.1967 15.65 16.8532 15.5206 16.3475C15.359 15.7158 15.4429 15.0289 15.7542 14.4349C15.9446 14.0714 16.4876 13.5285 16.8515 13.3379C17.4455 13.0267 18.1313 12.9431 18.7634 13.1047ZM17.6856 14.4396C16.5624 14.841 16.4642 16.3759 17.5283 16.8984C17.8906 17.0764 18.3463 17.0764 18.7087 16.8984C19.1889 16.6626 19.4374 16.2548 19.4374 15.7026C19.4374 15.3212 19.3444 15.0661 19.1069 14.7955C18.7859 14.4299 18.1548 14.2719 17.6856 14.4396Z" fill="#EDEDED"/>
</svg>
