<svg width="15" height="14" viewBox="0 0 15 14" fill="none" xmlns="http://www.w3.org/2000/svg">
<path fill-rule="evenodd" clip-rule="evenodd" d="M13.5445 0.927905C13.4557 0.962295 13.0053 1.1383 12.5436 1.31901C12.0819 1.49972 9.19056 2.62941 6.11844 3.8294C3.04632 5.02938 0.489241 6.03657 0.436 6.06757C0.13376 6.24363 0.110933 6.71831 0.395576 6.9086C0.484947 6.96832 3.76703 8.11327 3.84891 8.11327C3.87971 8.11327 5.667 7.01385 7.82065 5.67008C9.9743 4.32634 11.7691 3.2203 11.809 3.21219C12.0191 3.16963 11.8383 3.36523 10.5503 4.57421C6.86973 8.02891 5.89178 8.94976 5.88494 8.96718C5.85446 9.04446 5.65886 12.1837 5.68085 12.2427C5.71934 12.3459 5.78788 12.3957 5.92229 12.418C6.05302 12.4396 6.03982 12.4515 7.36494 11.1167L7.96571 10.5115L9.6412 11.8067C10.5627 12.5191 11.367 13.1283 11.4284 13.1605C11.5693 13.2343 11.8503 13.2369 11.9882 13.1656C12.1334 13.0907 12.2026 13.0226 12.2691 12.8896C12.3008 12.8262 12.8597 10.3063 13.5112 7.28976C14.8214 1.22341 14.7636 1.55173 14.5755 1.2413C14.4319 1.00429 14.2254 0.886038 13.9351 0.874509C13.7706 0.867954 13.6603 0.88304 13.5445 0.927905Z" fill="#3A99AE"/>
</svg>
