<svg width="15" height="16" viewBox="0 0 15 16" fill="none" xmlns="http://www.w3.org/2000/svg">
<path fill-rule="evenodd" clip-rule="evenodd" d="M6.2746 0.458807C4.40553 0.725733 2.76557 1.68905 1.60378 3.20248C-0.324495 5.71434 -0.496355 9.26542 1.18046 11.9486L1.38637 12.2781L0.941379 13.6568C0.673127 14.4879 0.509736 15.0352 0.529989 15.0349C0.548459 15.0345 1.16492 14.8315 1.89992 14.5837L3.23624 14.1332L3.50182 14.3025C4.38071 14.8629 5.3831 15.2125 6.44892 15.3301C6.90134 15.3801 7.88061 15.3501 8.30829 15.2733C10.7822 14.8287 12.8233 13.1156 13.7646 10.6934C14.1199 9.77921 14.2698 8.94627 14.2698 7.88646C14.2698 6.82666 14.1199 5.99372 13.7646 5.07949C12.8232 2.65716 10.7883 0.948916 8.30829 0.499099C7.87551 0.420592 6.70463 0.397405 6.2746 0.458807ZM5.00862 3.94185C5.07214 4.0086 5.19324 4.28044 5.47102 4.97984C5.67801 5.50104 5.85422 5.96992 5.86257 6.02185C5.88575 6.16597 5.76682 6.38278 5.48135 6.71689C5.17717 7.07288 5.13031 7.16212 5.17421 7.30174C5.21567 7.43358 5.51952 7.90673 5.77724 8.24079C6.32651 8.95271 7.08243 9.56065 7.85289 9.91015C8.12384 10.033 8.34237 10.0534 8.46575 9.96722C8.53933 9.91585 8.69918 9.71006 9.01847 9.25571C9.22195 8.96618 9.34497 8.89648 9.55082 8.95423C9.77255 9.01645 11.2931 9.79114 11.3871 9.8898C11.506 10.0145 11.4309 10.6893 11.2547 11.08C11.1652 11.2787 10.8506 11.5908 10.5778 11.7517C10.0705 12.051 9.56074 12.1375 9.00476 12.019C8.53766 11.9194 7.69145 11.6049 7.13823 11.3255C5.96348 10.732 4.91791 9.73298 3.90608 8.23731C3.29191 7.32943 3.02572 6.62637 3.02599 5.91281C3.02627 5.18513 3.23624 4.63514 3.69622 4.15737C3.95302 3.89062 4.11237 3.83428 4.58174 3.84422C4.92176 3.85141 4.92273 3.85165 5.00862 3.94185Z" fill="#3A99AE"/>
</svg>
