<svg width="17" height="10" viewBox="0 0 17 10" fill="none" xmlns="http://www.w3.org/2000/svg">
<path fill-rule="evenodd" clip-rule="evenodd" d="M7.22329 0.152517C6.63143 0.210155 6.36845 0.277976 6.1474 0.430072C5.9923 0.53675 5.82271 0.767044 5.86849 0.80881C5.88468 0.823551 6.00061 0.86619 6.12613 0.903527C6.41413 0.989224 6.59577 1.11947 6.68059 1.30108C7.01088 2.00832 6.95388 4.22107 6.59393 4.6653C6.50092 4.78006 6.26232 4.76574 6.07069 4.63391C5.74358 4.40885 5.42474 3.98311 5.02822 3.24203C4.69274 2.61505 4.13488 1.49113 4.02245 1.21577C3.8785 0.863215 3.78727 0.742476 3.58885 0.641973L3.41332 0.553075H2.12423C1.29784 0.553075 0.78469 0.565779 0.69459 0.58844C0.6172 0.607933 0.51453 0.665118 0.466013 0.715806C0.387201 0.798077 0.379507 0.825846 0.393149 0.979429C0.42748 1.36596 1.58645 3.68813 2.42035 5.04132C3.0684 6.09287 4.04964 7.39369 4.5452 7.85813C5.20318 8.47485 6.1537 9.06604 6.90003 9.32268C7.51003 9.53245 7.69613 9.55601 8.74264 9.55601H9.6801L9.8256 9.47458C10.0346 9.35756 10.0846 9.23045 10.1177 8.73165C10.1326 8.50747 10.1622 8.25212 10.1834 8.1642C10.2406 7.92811 10.4015 7.64274 10.5484 7.51699C10.8541 7.2553 11.107 7.41189 11.9949 8.41266C12.6304 9.12901 12.995 9.40951 13.4763 9.55239C13.6745 9.61123 14.2848 9.61763 15.6928 9.5756C16.5734 9.54935 16.6953 9.5245 16.8688 9.33571C16.94 9.25829 16.9446 9.23191 16.9314 8.9795C16.9181 8.72609 16.907 8.69018 16.7737 8.46887C16.5089 8.02926 16.1257 7.5892 15.2691 6.74089C14.3717 5.8522 14.2888 5.74569 14.2874 5.47912C14.286 5.21944 14.4173 5.01711 15.5961 3.46253C16.1018 2.79553 16.5223 2.15476 16.7364 1.72452C16.9129 1.36984 16.9218 1.34032 16.9325 1.06765C16.9432 0.795911 16.9397 0.778455 16.861 0.705397C16.7087 0.564292 16.5972 0.553075 15.3467 0.553075C14.6982 0.553075 13.9653 0.562449 13.718 0.573925L13.2684 0.594808L13.1523 0.715289C13.0741 0.796558 12.9905 0.950271 12.8956 1.18742C12.5441 2.0657 11.825 3.35627 11.3097 4.03377C11.0333 4.39715 10.6629 4.7232 10.5265 4.7232C10.396 4.7232 10.1999 4.52245 10.1464 4.33412C10.0999 4.17067 10.0915 3.48816 10.1165 1.91079C10.1312 0.985507 10.1273 0.877181 10.0741 0.724632C9.9993 0.510178 9.9165 0.40615 9.7549 0.323686C9.5002 0.193798 9.21519 0.160727 8.25774 0.150027C7.75991 0.144467 7.29441 0.145566 7.22329 0.152517Z" fill="#3A99AE"/>
</svg>
