<svg width="14" height="24" viewBox="0 0 14 24" fill="none" xmlns="http://www.w3.org/2000/svg">
<path fill-rule="evenodd" clip-rule="evenodd" d="M2.37583 0.258102C1.57809 0.43119 0.81455 1.02751 0.457938 1.7559C0.106433 2.47387 0.12864 1.76495 0.142564 11.8072L0.154966 20.7616L0.277596 21.1233C0.57421 21.9979 1.24677 22.6705 2.12144 22.9671L2.48311 23.0897L6.9012 23.1022C11.8638 23.1162 11.6684 23.1274 12.3522 22.7899C12.886 22.5264 13.3381 22.0743 13.5968 21.5451C13.9451 20.8325 13.9223 21.5243 13.9223 11.6505C13.9223 1.77668 13.9451 2.46849 13.5968 1.7559C13.2361 1.0182 12.4748 0.429131 11.6585 0.256222C11.2112 0.161484 2.81344 0.163185 2.37583 0.258102ZM12.624 10.6655V17.2918H7.02746H1.43097V10.6655V4.03927H7.02746H12.624V10.6655ZM7.56472 18.7727C8.02632 18.9812 8.28484 19.3672 8.31636 19.8949C8.33395 20.1899 8.32159 20.2703 8.22686 20.4773C7.7893 21.433 6.45237 21.5218 5.92961 20.6297C5.51726 19.9261 5.84418 19.0048 6.60213 18.7346C6.83629 18.6512 7.33979 18.6711 7.56472 18.7727Z" fill="#EDEDED"/>
</svg>
