<svg width="22" height="46" viewBox="0 0 22 46" fill="none" xmlns="http://www.w3.org/2000/svg">
<path d="M0.9375 11.2837C0.6875 10.9295 0.5625 10.5129 0.5625 10.0337C0.5625 9.55452 0.90625 9.02327 1.59375 8.43994L9.21875 1.87744C10.3229 0.898275 11.8542 0.398275 13.8125 0.377441H18.4062C19.2604 0.377441 19.9792 0.669108 20.5625 1.25244C21.1458 1.83577 21.4375 2.53369 21.4375 3.34619V42.2524C21.4375 43.0649 21.1354 43.7629 20.5312 44.3462C19.9271 44.9087 19.2188 45.1899 18.4062 45.1899H12.5938C11.7812 45.1899 11.0833 44.9191 10.5 44.3774C9.9375 43.8149 9.65625 43.1274 9.65625 42.3149V12.0962L6.0625 14.7212C5.64583 15.0129 5.16667 15.1066 4.625 15.0024C4.08333 14.8983 3.64583 14.6587 3.3125 14.2837L0.9375 11.2837Z" fill="#C8C8C8"/>
</svg>
