<svg width="42" height="46" viewBox="0 0 42 46" fill="none" xmlns="http://www.w3.org/2000/svg">
<path d="M0.266235 42.2524V37.6899C0.266235 35.0441 0.807902 32.7524 1.89124 30.8149C2.9954 28.8774 4.40165 27.3566 6.10999 26.2524C7.81832 25.1483 9.71415 24.2004 11.7975 23.4087C13.8808 22.617 15.9642 21.9816 18.0475 21.5024C20.1517 21.0024 22.0579 20.5024 23.7662 20.0024C27.6412 18.8358 29.5787 17.1795 29.5787 15.0337C29.5787 12.7004 28.9746 11.1066 27.7662 10.2524C26.5579 9.39827 24.5162 8.97119 21.6412 8.97119H19.4225C15.4017 8.97119 12.7558 10.2524 11.485 12.8149C10.5475 14.7733 9.14124 15.7524 7.26624 15.7524H3.54749C2.52665 15.7524 1.73499 15.3879 1.17249 14.6587C0.609985 13.9295 0.328735 13.1379 0.328735 12.2837C0.328735 9.90869 1.23499 7.77327 3.04749 5.87744C4.88082 3.96077 7.15165 2.52327 9.85999 1.56494C12.5683 0.606608 15.3912 0.127441 18.3287 0.127441H22.5475C31.6933 0.127441 37.485 2.66911 39.9225 7.75244C40.8808 9.75244 41.36 12.0754 41.36 14.7212C41.36 17.367 40.8183 19.617 39.735 21.4712C38.6517 23.3254 37.2558 24.8045 35.5475 25.9087C33.8392 26.992 31.9329 27.9295 29.8287 28.7212C27.7454 29.5129 25.6621 30.1691 23.5787 30.6899C21.4954 31.1899 19.5996 31.6691 17.8912 32.1274C13.9954 33.2108 12.0475 34.617 12.0475 36.3462H37.985C38.8392 36.3462 39.5475 36.6379 40.11 37.2212C40.6933 37.8045 40.985 38.5024 40.985 39.3149V42.2524C40.985 43.0649 40.6829 43.7629 40.0787 44.3462C39.4954 44.9087 38.7975 45.1899 37.985 45.1899H3.29749C2.48499 45.1899 1.77665 44.9087 1.17249 44.3462C0.568319 43.7629 0.266235 43.0649 0.266235 42.2524Z" fill="#C8C8C8"/>
</svg>
