<svg width="44" height="46" viewBox="0 0 44 46" fill="none" xmlns="http://www.w3.org/2000/svg">
<path d="M0.813721 32.9712C0.813721 31.7212 1.1783 30.8358 1.90747 30.3149C2.63664 29.7733 3.34497 29.5024 4.03247 29.5024H7.71997C9.65747 29.5024 11.1783 30.6899 12.2825 33.0649C13.3866 35.4399 15.9283 36.6274 19.9075 36.6274H24.3762C26.9387 36.6274 28.8137 36.2629 30.0012 35.5337C31.1887 34.8045 31.7825 33.5649 31.7825 31.8149C31.7825 30.0649 31.1887 28.8254 30.0012 28.0962C28.8137 27.367 26.9387 27.0024 24.3762 27.0024H18.7512C17.9387 27.0024 17.2408 26.7212 16.6575 26.1587C16.0741 25.5754 15.7825 24.8774 15.7825 24.0649V21.5024C15.7825 20.7316 16.0637 20.0545 16.6262 19.4712C17.1887 18.867 17.8554 18.5649 18.6262 18.5649H23.22C25.9908 18.5649 28.0012 18.2004 29.2512 17.4712C30.5221 16.742 31.1575 15.5024 31.1575 13.7524C31.1575 12.0024 30.5221 10.7733 29.2512 10.0649C28.0012 9.33577 25.9908 8.97119 23.22 8.97119H20.9075C16.9075 8.97119 14.2616 10.2524 12.97 12.8149C12.0325 14.7733 10.6262 15.7524 8.75122 15.7524H5.03247C4.03247 15.7524 3.25122 15.3879 2.68872 14.6587C2.12622 13.9295 1.84497 13.1379 1.84497 12.2837C1.84497 9.90869 2.75122 7.77327 4.56372 5.87744C6.37622 3.96077 8.63664 2.52327 11.345 1.56494C14.0533 0.606608 16.8762 0.127441 19.8137 0.127441H24.1262C36.6679 0.127441 42.9387 4.68994 42.9387 13.8149C42.9387 17.6274 41.5116 20.617 38.6575 22.7837C41.9283 24.8462 43.5637 27.8566 43.5637 31.8149C43.5637 36.6274 42.0221 40.1066 38.9387 42.2524C35.8762 44.3774 31.3866 45.4399 25.47 45.4399H18.8137C14.1471 45.4399 9.98039 44.2941 6.31372 42.0024C2.64705 39.6899 0.813721 36.6795 0.813721 32.9712Z" fill="#C8C8C8"/>
</svg>
